# xmcd
#
# Track frame offsets: 
#        150
#        20172
#        39242
#        55477
#        73812
#        91472
#        110412
#        129532
#        147507
#        162852
#        180412
#        203715
#        221574
#        246271
#        264382
#        289132
#
# Disc length: 4295 seconds
#
# Revision: 0
# Processed by: cddbd v1.5.2PL0 Copyright (c) Steve Scherf et al.
# Submitted via: ExactAudioCopy v0.95b4
#
DISCID=f410c510
DTITLE=Magneto - Grandes Exitos
DYEAR=2000
DGENRE=Pop
TTITLE0=Vuela vuela
TTITLE1=Para siempre
TTITLE2=Cuarenta grados
TTITLE3=Obsesionado
TTITLE4=Malherido
TTITLE5=Sugar sugar
TTITLE6=Dejame estar a tu lado
TTITLE7=La puerta del colegio
TTITLE8=Cambiando el destino
TTITLE9=Tu libertad
TTITLE10=Dame amor
TTITLE11=Amor a mogollon
TTITLE12=Siglo XX
TTITLE13=Huy que llego tarde
TTITLE14=Mira mira mira
TTITLE15=Vuela vuela (Remix)
EXTD=
EXTT0=
EXTT1=
EXTT2=
EXTT3=
EXTT4=
EXTT5=
EXTT6=
EXTT7=
EXTT8=
EXTT9=
EXTT10=
EXTT11=
EXTT12=
EXTT13=
EXTT14=
EXTT15=
PLAYORDER=
